<svg width="183" height="181" viewBox="0 0 183 181" fill="none" xmlns="http://www.w3.org/2000/svg">
<circle cx="92" cy="86" r="63" fill="#FFE500"/>
<circle cx="91.5" cy="63.5" r="63" stroke="#B79C10"/>
<path d="M88.4961 78H85.1094V64.9453L81.0664 66.1992V63.4453L88.1328 60.9141H88.4961V78Z" fill="#3F4255"/>
<path d="M18.1523 162.32L18.2578 163.785C19.1641 162.652 20.3789 162.086 21.9023 162.086C23.2461 162.086 24.2461 162.48 24.9023 163.27C25.5586 164.059 25.8945 165.238 25.9102 166.809V175H22.5234V166.891C22.5234 166.172 22.3672 165.652 22.0547 165.332C21.7422 165.004 21.2227 164.84 20.4961 164.84C19.543 164.84 18.8281 165.246 18.3516 166.059V175H14.9648V162.32H18.1523ZM35.8359 175C35.6797 174.695 35.5664 174.316 35.4961 173.863C34.6758 174.777 33.6094 175.234 32.2969 175.234C31.0547 175.234 30.0234 174.875 29.2031 174.156C28.3906 173.438 27.9844 172.531 27.9844 171.438C27.9844 170.094 28.4805 169.062 29.4727 168.344C30.4727 167.625 31.9141 167.262 33.7969 167.254H35.3555V166.527C35.3555 165.941 35.2031 165.473 34.8984 165.121C34.6016 164.77 34.1289 164.594 33.4805 164.594C32.9102 164.594 32.4609 164.73 32.1328 165.004C31.8125 165.277 31.6523 165.652 31.6523 166.129H28.2656C28.2656 165.395 28.4922 164.715 28.9453 164.09C29.3984 163.465 30.0391 162.977 30.8672 162.625C31.6953 162.266 32.625 162.086 33.6562 162.086C35.2188 162.086 36.457 162.48 37.3711 163.27C38.293 164.051 38.7539 165.152 38.7539 166.574V172.07C38.7617 173.273 38.9297 174.184 39.2578 174.801V175H35.8359ZM33.0352 172.645C33.5352 172.645 33.9961 172.535 34.418 172.316C34.8398 172.09 35.1523 171.789 35.3555 171.414V169.234H34.0898C32.3945 169.234 31.4922 169.82 31.3828 170.992L31.3711 171.191C31.3711 171.613 31.5195 171.961 31.8164 172.234C32.1133 172.508 32.5195 172.645 33.0352 172.645ZM44.9414 162.32V175.691C44.9414 177.09 44.5703 178.176 43.8281 178.949C43.0859 179.73 42.0156 180.121 40.6172 180.121C40.0312 180.121 39.4727 180.055 38.9414 179.922V177.238C39.3477 177.309 39.7031 177.344 40.0078 177.344C41.0312 177.344 41.543 176.801 41.543 175.715V162.32H44.9414ZM41.2734 159.039C41.2734 158.531 41.4414 158.113 41.7773 157.785C42.1211 157.457 42.5859 157.293 43.1719 157.293C43.7578 157.293 44.2188 157.457 44.5547 157.785C44.8984 158.113 45.0703 158.531 45.0703 159.039C45.0703 159.555 44.8945 159.977 44.543 160.305C44.1992 160.633 43.7422 160.797 43.1719 160.797C42.6016 160.797 42.1406 160.633 41.7891 160.305C41.4453 159.977 41.2734 159.555 41.2734 159.039ZM59.0156 168.777C59.0156 170.809 58.582 172.395 57.7148 173.535C56.8477 174.668 55.6367 175.234 54.082 175.234C52.707 175.234 51.6094 174.707 50.7891 173.652L50.6367 175H47.5898V157H50.9766V163.457C51.7578 162.543 52.7852 162.086 54.0586 162.086C55.6055 162.086 56.8164 162.656 57.6914 163.797C58.5742 164.93 59.0156 166.527 59.0156 168.59V168.777ZM55.6289 168.531C55.6289 167.25 55.4258 166.316 55.0195 165.73C54.6133 165.137 54.0078 164.84 53.2031 164.84C52.125 164.84 51.3828 165.281 50.9766 166.164V171.168C51.3906 172.059 52.1406 172.504 53.2266 172.504C54.3203 172.504 55.0391 171.965 55.3828 170.887C55.5469 170.371 55.6289 169.586 55.6289 168.531ZM60.5859 168.543C60.5859 167.285 60.8281 166.164 61.3125 165.18C61.7969 164.195 62.4922 163.434 63.3984 162.895C64.3125 162.355 65.3711 162.086 66.5742 162.086C68.2852 162.086 69.6797 162.609 70.7578 163.656C71.8438 164.703 72.4492 166.125 72.5742 167.922L72.5977 168.789C72.5977 170.734 72.0547 172.297 70.9688 173.477C69.8828 174.648 68.4258 175.234 66.5977 175.234C64.7695 175.234 63.3086 174.648 62.2148 173.477C61.1289 172.305 60.5859 170.711 60.5859 168.695V168.543ZM63.9727 168.789C63.9727 169.992 64.1992 170.914 64.6523 171.555C65.1055 172.188 65.7539 172.504 66.5977 172.504C67.418 172.504 68.0586 172.191 68.5195 171.566C68.9805 170.934 69.2109 169.926 69.2109 168.543C69.2109 167.363 68.9805 166.449 68.5195 165.801C68.0586 165.152 67.4102 164.828 66.5742 164.828C65.7461 164.828 65.1055 165.152 64.6523 165.801C64.1992 166.441 63.9727 167.438 63.9727 168.789ZM78.2578 175H74.8594V157H78.2578V175ZM84.6445 162.32V175.691C84.6445 177.09 84.2734 178.176 83.5312 178.949C82.7891 179.73 81.7188 180.121 80.3203 180.121C79.7344 180.121 79.1758 180.055 78.6445 179.922V177.238C79.0508 177.309 79.4062 177.344 79.7109 177.344C80.7344 177.344 81.2461 176.801 81.2461 175.715V162.32H84.6445ZM80.9766 159.039C80.9766 158.531 81.1445 158.113 81.4805 157.785C81.8242 157.457 82.2891 157.293 82.875 157.293C83.4609 157.293 83.9219 157.457 84.2578 157.785C84.6016 158.113 84.7734 158.531 84.7734 159.039C84.7734 159.555 84.5977 159.977 84.2461 160.305C83.9023 160.633 83.4453 160.797 82.875 160.797C82.3047 160.797 81.8438 160.633 81.4922 160.305C81.1484 159.977 80.9766 159.555 80.9766 159.039ZM94.6406 175C94.4844 174.695 94.3711 174.316 94.3008 173.863C93.4805 174.777 92.4141 175.234 91.1016 175.234C89.8594 175.234 88.8281 174.875 88.0078 174.156C87.1953 173.438 86.7891 172.531 86.7891 171.438C86.7891 170.094 87.2852 169.062 88.2773 168.344C89.2773 167.625 90.7188 167.262 92.6016 167.254H94.1602V166.527C94.1602 165.941 94.0078 165.473 93.7031 165.121C93.4062 164.77 92.9336 164.594 92.2852 164.594C91.7148 164.594 91.2656 164.73 90.9375 165.004C90.6172 165.277 90.457 165.652 90.457 166.129H87.0703C87.0703 165.395 87.2969 164.715 87.75 164.09C88.2031 163.465 88.8438 162.977 89.6719 162.625C90.5 162.266 91.4297 162.086 92.4609 162.086C94.0234 162.086 95.2617 162.48 96.1758 163.27C97.0977 164.051 97.5586 165.152 97.5586 166.574V172.07C97.5664 173.273 97.7344 174.184 98.0625 174.801V175H94.6406ZM91.8398 172.645C92.3398 172.645 92.8008 172.535 93.2227 172.316C93.6445 172.09 93.957 171.789 94.1602 171.414V169.234H92.8945C91.1992 169.234 90.2969 169.82 90.1875 170.992L90.1758 171.191C90.1758 171.613 90.3242 171.961 90.6211 172.234C90.918 172.508 91.3242 172.645 91.8398 172.645ZM111.41 172.504C112.035 172.504 112.543 172.332 112.934 171.988C113.324 171.645 113.527 171.188 113.543 170.617H116.719C116.711 171.477 116.477 172.266 116.016 172.984C115.555 173.695 114.922 174.25 114.117 174.648C113.32 175.039 112.438 175.234 111.469 175.234C109.656 175.234 108.227 174.66 107.18 173.512C106.133 172.355 105.609 170.762 105.609 168.73V168.508C105.609 166.555 106.129 164.996 107.168 163.832C108.207 162.668 109.633 162.086 111.445 162.086C113.031 162.086 114.301 162.539 115.254 163.445C116.215 164.344 116.703 165.543 116.719 167.043H113.543C113.527 166.387 113.324 165.855 112.934 165.449C112.543 165.035 112.027 164.828 111.387 164.828C110.598 164.828 110 165.117 109.594 165.695C109.195 166.266 108.996 167.195 108.996 168.484V168.836C108.996 170.141 109.195 171.078 109.594 171.648C109.992 172.219 110.598 172.504 111.41 172.504ZM122.227 175H118.828V162.32H122.227V175ZM118.629 159.039C118.629 158.531 118.797 158.113 119.133 157.785C119.477 157.457 119.941 157.293 120.527 157.293C121.105 157.293 121.566 157.457 121.91 157.785C122.254 158.113 122.426 158.531 122.426 159.039C122.426 159.555 122.25 159.977 121.898 160.305C121.555 160.633 121.098 160.797 120.527 160.797C119.957 160.797 119.496 160.633 119.145 160.305C118.801 159.977 118.629 159.555 118.629 159.039ZM128.613 162.32V175.691C128.613 177.09 128.242 178.176 127.5 178.949C126.758 179.73 125.688 180.121 124.289 180.121C123.703 180.121 123.145 180.055 122.613 179.922V177.238C123.02 177.309 123.375 177.344 123.68 177.344C124.703 177.344 125.215 176.801 125.215 175.715V162.32H128.613ZM124.945 159.039C124.945 158.531 125.113 158.113 125.449 157.785C125.793 157.457 126.258 157.293 126.844 157.293C127.43 157.293 127.891 157.457 128.227 157.785C128.57 158.113 128.742 158.531 128.742 159.039C128.742 159.555 128.566 159.977 128.215 160.305C127.871 160.633 127.414 160.797 126.844 160.797C126.273 160.797 125.812 160.633 125.461 160.305C125.117 159.977 124.945 159.555 124.945 159.039ZM137.098 175.234C135.238 175.234 133.723 174.664 132.551 173.523C131.387 172.383 130.805 170.863 130.805 168.965V168.637C130.805 167.363 131.051 166.227 131.543 165.227C132.035 164.219 132.73 163.445 133.629 162.906C134.535 162.359 135.566 162.086 136.723 162.086C138.457 162.086 139.82 162.633 140.812 163.727C141.812 164.82 142.312 166.371 142.312 168.379V169.762H134.238C134.348 170.59 134.676 171.254 135.223 171.754C135.777 172.254 136.477 172.504 137.32 172.504C138.625 172.504 139.645 172.031 140.379 171.086L142.043 172.949C141.535 173.668 140.848 174.23 139.98 174.637C139.113 175.035 138.152 175.234 137.098 175.234ZM136.711 164.828C136.039 164.828 135.492 165.055 135.07 165.508C134.656 165.961 134.391 166.609 134.273 167.453H138.984V167.184C138.969 166.434 138.766 165.855 138.375 165.449C137.984 165.035 137.43 164.828 136.711 164.828ZM147.363 162.32L147.469 163.785C148.375 162.652 149.59 162.086 151.113 162.086C152.457 162.086 153.457 162.48 154.113 163.27C154.77 164.059 155.105 165.238 155.121 166.809V175H151.734V166.891C151.734 166.172 151.578 165.652 151.266 165.332C150.953 165.004 150.434 164.84 149.707 164.84C148.754 164.84 148.039 165.246 147.562 166.059V175H144.176V162.32H147.363ZM165.047 175C164.891 174.695 164.777 174.316 164.707 173.863C163.887 174.777 162.82 175.234 161.508 175.234C160.266 175.234 159.234 174.875 158.414 174.156C157.602 173.438 157.195 172.531 157.195 171.438C157.195 170.094 157.691 169.062 158.684 168.344C159.684 167.625 161.125 167.262 163.008 167.254H164.566V166.527C164.566 165.941 164.414 165.473 164.109 165.121C163.812 164.77 163.34 164.594 162.691 164.594C162.121 164.594 161.672 164.73 161.344 165.004C161.023 165.277 160.863 165.652 160.863 166.129H157.477C157.477 165.395 157.703 164.715 158.156 164.09C158.609 163.465 159.25 162.977 160.078 162.625C160.906 162.266 161.836 162.086 162.867 162.086C164.43 162.086 165.668 162.48 166.582 163.27C167.504 164.051 167.965 165.152 167.965 166.574V172.07C167.973 173.273 168.141 174.184 168.469 174.801V175H165.047ZM162.246 172.645C162.746 172.645 163.207 172.535 163.629 172.316C164.051 172.09 164.363 171.789 164.566 171.414V169.234H163.301C161.605 169.234 160.703 169.82 160.594 170.992L160.582 171.191C160.582 171.613 160.73 171.961 161.027 172.234C161.324 172.508 161.73 172.645 162.246 172.645Z" fill="#3F4255"/>
</svg>
