<svg width="183" height="176" viewBox="0 0 183 176" fill="none" xmlns="http://www.w3.org/2000/svg">
<circle cx="92" cy="86" r="63" fill="#FFE500"/>
<circle cx="91.5" cy="63.5" r="63" stroke="#B79C10"/>
<path d="M81.6055 78H78.2188V64.9453L74.1758 66.1992V63.4453L81.2422 60.9141H81.6055V78ZM95.3867 78H92V64.9453L87.957 66.1992V63.4453L95.0234 60.9141H95.3867V78Z" fill="#3F4255"/>
<path d="M48.5273 165.496C48.0664 165.434 47.6602 165.402 47.3086 165.402C46.0273 165.402 45.1875 165.836 44.7891 166.703V175H41.4023V162.32H44.6016L44.6953 163.832C45.375 162.668 46.3164 162.086 47.5195 162.086C47.8945 162.086 48.2461 162.137 48.5742 162.238L48.5273 165.496ZM55.7695 175.234C53.9102 175.234 52.3945 174.664 51.2227 173.523C50.0586 172.383 49.4766 170.863 49.4766 168.965V168.637C49.4766 167.363 49.7227 166.227 50.2148 165.227C50.707 164.219 51.4023 163.445 52.3008 162.906C53.207 162.359 54.2383 162.086 55.3945 162.086C57.1289 162.086 58.4922 162.633 59.4844 163.727C60.4844 164.82 60.9844 166.371 60.9844 168.379V169.762H52.9102C53.0195 170.59 53.3477 171.254 53.8945 171.754C54.4492 172.254 55.1484 172.504 55.9922 172.504C57.2969 172.504 58.3164 172.031 59.0508 171.086L60.7148 172.949C60.207 173.668 59.5195 174.23 58.6523 174.637C57.7852 175.035 56.8242 175.234 55.7695 175.234ZM55.3828 164.828C54.7109 164.828 54.1641 165.055 53.7422 165.508C53.3281 165.961 53.0625 166.609 52.9453 167.453H57.6562V167.184C57.6406 166.434 57.4375 165.855 57.0469 165.449C56.6562 165.035 56.1016 164.828 55.3828 164.828ZM69.7852 171.496C69.7852 171.082 69.5781 170.758 69.1641 170.523C68.7578 170.281 68.1016 170.066 67.1953 169.879C64.1797 169.246 62.6719 167.965 62.6719 166.035C62.6719 164.91 63.1367 163.973 64.0664 163.223C65.0039 162.465 66.2266 162.086 67.7344 162.086C69.3438 162.086 70.6289 162.465 71.5898 163.223C72.5586 163.98 73.043 164.965 73.043 166.176H69.6562C69.6562 165.691 69.5 165.293 69.1875 164.98C68.875 164.66 68.3867 164.5 67.7227 164.5C67.1523 164.5 66.7109 164.629 66.3984 164.887C66.0859 165.145 65.9297 165.473 65.9297 165.871C65.9297 166.246 66.1055 166.551 66.457 166.785C66.8164 167.012 67.418 167.211 68.2617 167.383C69.1055 167.547 69.8164 167.734 70.3945 167.945C72.1836 168.602 73.0781 169.738 73.0781 171.355C73.0781 172.512 72.582 173.449 71.5898 174.168C70.5977 174.879 69.3164 175.234 67.7461 175.234C66.6836 175.234 65.7383 175.047 64.9102 174.672C64.0898 174.289 63.4453 173.77 62.9766 173.113C62.5078 172.449 62.2734 171.734 62.2734 170.969H65.4844C65.5156 171.57 65.7383 172.031 66.1523 172.352C66.5664 172.672 67.1211 172.832 67.8164 172.832C68.4648 172.832 68.9531 172.711 69.2812 172.469C69.6172 172.219 69.7852 171.895 69.7852 171.496ZM79.3242 159.203V162.32H81.4922V164.805H79.3242V171.133C79.3242 171.602 79.4141 171.938 79.5938 172.141C79.7734 172.344 80.1172 172.445 80.625 172.445C81 172.445 81.332 172.418 81.6211 172.363V174.93C80.957 175.133 80.2734 175.234 79.5703 175.234C77.1953 175.234 75.9844 174.035 75.9375 171.637V164.805H74.0859V162.32H75.9375V159.203H79.3242ZM82.5 168.543C82.5 167.285 82.7422 166.164 83.2266 165.18C83.7109 164.195 84.4062 163.434 85.3125 162.895C86.2266 162.355 87.2852 162.086 88.4883 162.086C90.1992 162.086 91.5938 162.609 92.6719 163.656C93.7578 164.703 94.3633 166.125 94.4883 167.922L94.5117 168.789C94.5117 170.734 93.9688 172.297 92.8828 173.477C91.7969 174.648 90.3398 175.234 88.5117 175.234C86.6836 175.234 85.2227 174.648 84.1289 173.477C83.043 172.305 82.5 170.711 82.5 168.695V168.543ZM85.8867 168.789C85.8867 169.992 86.1133 170.914 86.5664 171.555C87.0195 172.188 87.668 172.504 88.5117 172.504C89.332 172.504 89.9727 172.191 90.4336 171.566C90.8945 170.934 91.125 169.926 91.125 168.543C91.125 167.363 90.8945 166.449 90.4336 165.801C89.9727 165.152 89.3242 164.828 88.4883 164.828C87.6602 164.828 87.0195 165.152 86.5664 165.801C86.1133 166.441 85.8867 167.438 85.8867 168.789ZM103.723 165.496C103.262 165.434 102.855 165.402 102.504 165.402C101.223 165.402 100.383 165.836 99.9844 166.703V175H96.5977V162.32H99.7969L99.8906 163.832C100.57 162.668 101.512 162.086 102.715 162.086C103.09 162.086 103.441 162.137 103.77 162.238L103.723 165.496ZM112.359 175C112.203 174.695 112.09 174.316 112.02 173.863C111.199 174.777 110.133 175.234 108.82 175.234C107.578 175.234 106.547 174.875 105.727 174.156C104.914 173.438 104.508 172.531 104.508 171.438C104.508 170.094 105.004 169.062 105.996 168.344C106.996 167.625 108.438 167.262 110.32 167.254H111.879V166.527C111.879 165.941 111.727 165.473 111.422 165.121C111.125 164.77 110.652 164.594 110.004 164.594C109.434 164.594 108.984 164.73 108.656 165.004C108.336 165.277 108.176 165.652 108.176 166.129H104.789C104.789 165.395 105.016 164.715 105.469 164.09C105.922 163.465 106.562 162.977 107.391 162.625C108.219 162.266 109.148 162.086 110.18 162.086C111.742 162.086 112.98 162.48 113.895 163.27C114.816 164.051 115.277 165.152 115.277 166.574V172.07C115.285 173.273 115.453 174.184 115.781 174.801V175H112.359ZM109.559 172.645C110.059 172.645 110.52 172.535 110.941 172.316C111.363 172.09 111.676 171.789 111.879 171.414V169.234H110.613C108.918 169.234 108.016 169.82 107.906 170.992L107.895 171.191C107.895 171.613 108.043 171.961 108.34 172.234C108.637 172.508 109.043 172.645 109.559 172.645ZM120.996 162.32L121.102 163.785C122.008 162.652 123.223 162.086 124.746 162.086C126.09 162.086 127.09 162.48 127.746 163.27C128.402 164.059 128.738 165.238 128.754 166.809V175H125.367V166.891C125.367 166.172 125.211 165.652 124.898 165.332C124.586 165.004 124.066 164.84 123.34 164.84C122.387 164.84 121.672 165.246 121.195 166.059V175H117.809V162.32H120.996ZM138.68 175C138.523 174.695 138.41 174.316 138.34 173.863C137.52 174.777 136.453 175.234 135.141 175.234C133.898 175.234 132.867 174.875 132.047 174.156C131.234 173.438 130.828 172.531 130.828 171.438C130.828 170.094 131.324 169.062 132.316 168.344C133.316 167.625 134.758 167.262 136.641 167.254H138.199V166.527C138.199 165.941 138.047 165.473 137.742 165.121C137.445 164.77 136.973 164.594 136.324 164.594C135.754 164.594 135.305 164.73 134.977 165.004C134.656 165.277 134.496 165.652 134.496 166.129H131.109C131.109 165.395 131.336 164.715 131.789 164.09C132.242 163.465 132.883 162.977 133.711 162.625C134.539 162.266 135.469 162.086 136.5 162.086C138.062 162.086 139.301 162.48 140.215 163.27C141.137 164.051 141.598 165.152 141.598 166.574V172.07C141.605 173.273 141.773 174.184 142.102 174.801V175H138.68ZM135.879 172.645C136.379 172.645 136.84 172.535 137.262 172.316C137.684 172.09 137.996 171.789 138.199 171.414V169.234H136.934C135.238 169.234 134.336 169.82 134.227 170.992L134.215 171.191C134.215 171.613 134.363 171.961 134.66 172.234C134.957 172.508 135.363 172.645 135.879 172.645Z" fill="#3F4255"/>
</svg>
