<svg width="183" height="176" viewBox="0 0 183 176" fill="none" xmlns="http://www.w3.org/2000/svg">
<circle cx="92" cy="86" r="63" fill="#FFE500"/>
<circle cx="91.5" cy="63.5" r="63" stroke="#B79C10"/>
<path d="M89.457 60.7617V63.5508H89.1289C87.5977 63.5742 86.3633 63.9727 85.4258 64.7461C84.4961 65.5195 83.9375 66.5938 83.75 67.9688C84.6562 67.0469 85.8008 66.5859 87.1836 66.5859C88.668 66.5859 89.8477 67.1172 90.7227 68.1797C91.5977 69.2422 92.0352 70.6406 92.0352 72.375C92.0352 73.4844 91.793 74.4883 91.3086 75.3867C90.832 76.2852 90.1523 76.9844 89.2695 77.4844C88.3945 77.9844 87.4023 78.2344 86.293 78.2344C84.4961 78.2344 83.043 77.6094 81.9336 76.3594C80.832 75.1094 80.2812 73.4414 80.2812 71.3555V70.1367C80.2812 68.2852 80.6289 66.6523 81.3242 65.2383C82.0273 63.8164 83.0312 62.7188 84.3359 61.9453C85.6484 61.1641 87.168 60.7695 88.8945 60.7617H89.457ZM86.1523 69.3047C85.6055 69.3047 85.1094 69.4492 84.6641 69.7383C84.2188 70.0195 83.8906 70.3945 83.6797 70.8633V71.8945C83.6797 73.0273 83.9023 73.9141 84.3477 74.5547C84.793 75.1875 85.418 75.5039 86.2227 75.5039C86.9492 75.5039 87.5352 75.2188 87.9805 74.6484C88.4336 74.0703 88.6602 73.3242 88.6602 72.4102C88.6602 71.4805 88.4336 70.7305 87.9805 70.1602C87.5273 69.5898 86.918 69.3047 86.1523 69.3047Z" fill="#3F4255"/>
<path d="M25.2891 170.863L27.6445 162.32H31.1836L26.9062 175H23.6719L19.3945 162.32H22.9336L25.2891 170.863ZM39.8086 165.496C39.3477 165.434 38.9414 165.402 38.5898 165.402C37.3086 165.402 36.4688 165.836 36.0703 166.703V175H32.6836V162.32H35.8828L35.9766 163.832C36.6562 162.668 37.5977 162.086 38.8008 162.086C39.1758 162.086 39.5273 162.137 39.8555 162.238L39.8086 165.496ZM48.3164 171.496C48.3164 171.082 48.1094 170.758 47.6953 170.523C47.2891 170.281 46.6328 170.066 45.7266 169.879C42.7109 169.246 41.2031 167.965 41.2031 166.035C41.2031 164.91 41.668 163.973 42.5977 163.223C43.5352 162.465 44.7578 162.086 46.2656 162.086C47.875 162.086 49.1602 162.465 50.1211 163.223C51.0898 163.98 51.5742 164.965 51.5742 166.176H48.1875C48.1875 165.691 48.0312 165.293 47.7188 164.98C47.4062 164.66 46.918 164.5 46.2539 164.5C45.6836 164.5 45.2422 164.629 44.9297 164.887C44.6172 165.145 44.4609 165.473 44.4609 165.871C44.4609 166.246 44.6367 166.551 44.9883 166.785C45.3477 167.012 45.9492 167.211 46.793 167.383C47.6367 167.547 48.3477 167.734 48.9258 167.945C50.7148 168.602 51.6094 169.738 51.6094 171.355C51.6094 172.512 51.1133 173.449 50.1211 174.168C49.1289 174.879 47.8477 175.234 46.2773 175.234C45.2148 175.234 44.2695 175.047 43.4414 174.672C42.6211 174.289 41.9766 173.77 41.5078 173.113C41.0391 172.449 40.8047 171.734 40.8047 170.969H44.0156C44.0469 171.57 44.2695 172.031 44.6836 172.352C45.0977 172.672 45.6523 172.832 46.3477 172.832C46.9961 172.832 47.4844 172.711 47.8125 172.469C48.1484 172.219 48.3164 171.895 48.3164 171.496ZM57.8555 159.203V162.32H60.0234V164.805H57.8555V171.133C57.8555 171.602 57.9453 171.938 58.125 172.141C58.3047 172.344 58.6484 172.445 59.1562 172.445C59.5312 172.445 59.8633 172.418 60.1523 172.363V174.93C59.4883 175.133 58.8047 175.234 58.1016 175.234C55.7266 175.234 54.5156 174.035 54.4688 171.637V164.805H52.6172V162.32H54.4688V159.203H57.8555ZM69.2578 175C69.1016 174.695 68.9883 174.316 68.918 173.863C68.0977 174.777 67.0312 175.234 65.7188 175.234C64.4766 175.234 63.4453 174.875 62.625 174.156C61.8125 173.438 61.4062 172.531 61.4062 171.438C61.4062 170.094 61.9023 169.062 62.8945 168.344C63.8945 167.625 65.3359 167.262 67.2188 167.254H68.7773V166.527C68.7773 165.941 68.625 165.473 68.3203 165.121C68.0234 164.77 67.5508 164.594 66.9023 164.594C66.332 164.594 65.8828 164.73 65.5547 165.004C65.2344 165.277 65.0742 165.652 65.0742 166.129H61.6875C61.6875 165.395 61.9141 164.715 62.3672 164.09C62.8203 163.465 63.4609 162.977 64.2891 162.625C65.1172 162.266 66.0469 162.086 67.0781 162.086C68.6406 162.086 69.8789 162.48 70.793 163.27C71.7148 164.051 72.1758 165.152 72.1758 166.574V172.07C72.1836 173.273 72.3516 174.184 72.6797 174.801V175H69.2578ZM66.457 172.645C66.957 172.645 67.418 172.535 67.8398 172.316C68.2617 172.09 68.5742 171.789 68.7773 171.414V169.234H67.5117C65.8164 169.234 64.9141 169.82 64.8047 170.992L64.793 171.191C64.793 171.613 64.9414 171.961 65.2383 172.234C65.5352 172.508 65.9414 172.645 66.457 172.645ZM86.0273 172.504C86.6523 172.504 87.1602 172.332 87.5508 171.988C87.9414 171.645 88.1445 171.188 88.1602 170.617H91.3359C91.3281 171.477 91.0938 172.266 90.6328 172.984C90.1719 173.695 89.5391 174.25 88.7344 174.648C87.9375 175.039 87.0547 175.234 86.0859 175.234C84.2734 175.234 82.8438 174.66 81.7969 173.512C80.75 172.355 80.2266 170.762 80.2266 168.73V168.508C80.2266 166.555 80.7461 164.996 81.7852 163.832C82.8242 162.668 84.25 162.086 86.0625 162.086C87.6484 162.086 88.918 162.539 89.8711 163.445C90.832 164.344 91.3203 165.543 91.3359 167.043H88.1602C88.1445 166.387 87.9414 165.855 87.5508 165.449C87.1602 165.035 86.6445 164.828 86.0039 164.828C85.2148 164.828 84.6172 165.117 84.2109 165.695C83.8125 166.266 83.6133 167.195 83.6133 168.484V168.836C83.6133 170.141 83.8125 171.078 84.2109 171.648C84.6094 172.219 85.2148 172.504 86.0273 172.504ZM85.7109 158.664L87.4219 156.988H90.3164V157.117L86.7773 160.41H84.6328L81.0938 157.094V156.988H83.9883L85.7109 158.664ZM98.0156 170.863L100.371 162.32H103.91L99.6328 175H96.3984L92.1211 162.32H95.6602L98.0156 170.863ZM112.57 175C112.414 174.695 112.301 174.316 112.23 173.863C111.41 174.777 110.344 175.234 109.031 175.234C107.789 175.234 106.758 174.875 105.938 174.156C105.125 173.438 104.719 172.531 104.719 171.438C104.719 170.094 105.215 169.062 106.207 168.344C107.207 167.625 108.648 167.262 110.531 167.254H112.09V166.527C112.09 165.941 111.938 165.473 111.633 165.121C111.336 164.77 110.863 164.594 110.215 164.594C109.645 164.594 109.195 164.73 108.867 165.004C108.547 165.277 108.387 165.652 108.387 166.129H105C105 165.395 105.227 164.715 105.68 164.09C106.133 163.465 106.773 162.977 107.602 162.625C108.43 162.266 109.359 162.086 110.391 162.086C111.953 162.086 113.191 162.48 114.105 163.27C115.027 164.051 115.488 165.152 115.488 166.574V172.07C115.496 173.273 115.664 174.184 115.992 174.801V175H112.57ZM109.77 172.645C110.27 172.645 110.73 172.535 111.152 172.316C111.574 172.09 111.887 171.789 112.09 171.414V169.234H110.824C109.129 169.234 108.227 169.82 108.117 170.992L108.105 171.191C108.105 171.613 108.254 171.961 108.551 172.234C108.848 172.508 109.254 172.645 109.77 172.645ZM125.215 165.496C124.754 165.434 124.348 165.402 123.996 165.402C122.715 165.402 121.875 165.836 121.477 166.703V175H118.09V162.32H121.289L121.383 163.832C122.062 162.668 123.004 162.086 124.207 162.086C124.582 162.086 124.934 162.137 125.262 162.238L125.215 165.496ZM133.852 175C133.695 174.695 133.582 174.316 133.512 173.863C132.691 174.777 131.625 175.234 130.312 175.234C129.07 175.234 128.039 174.875 127.219 174.156C126.406 173.438 126 172.531 126 171.438C126 170.094 126.496 169.062 127.488 168.344C128.488 167.625 129.93 167.262 131.812 167.254H133.371V166.527C133.371 165.941 133.219 165.473 132.914 165.121C132.617 164.77 132.145 164.594 131.496 164.594C130.926 164.594 130.477 164.73 130.148 165.004C129.828 165.277 129.668 165.652 129.668 166.129H126.281C126.281 165.395 126.508 164.715 126.961 164.09C127.414 163.465 128.055 162.977 128.883 162.625C129.711 162.266 130.641 162.086 131.672 162.086C133.234 162.086 134.473 162.48 135.387 163.27C136.309 164.051 136.77 165.152 136.77 166.574V172.07C136.777 173.273 136.945 174.184 137.273 174.801V175H133.852ZM131.051 172.645C131.551 172.645 132.012 172.535 132.434 172.316C132.855 172.09 133.168 171.789 133.371 171.414V169.234H132.105C130.41 169.234 129.508 169.82 129.398 170.992L129.387 171.191C129.387 171.613 129.535 171.961 129.832 172.234C130.129 172.508 130.535 172.645 131.051 172.645ZM143.977 169.914L142.758 171.133V175H139.371V157H142.758V166.973L143.414 166.129L146.66 162.32H150.727L146.145 167.605L151.125 175H147.234L143.977 169.914ZM159.539 175C159.383 174.695 159.27 174.316 159.199 173.863C158.379 174.777 157.312 175.234 156 175.234C154.758 175.234 153.727 174.875 152.906 174.156C152.094 173.438 151.688 172.531 151.688 171.438C151.688 170.094 152.184 169.062 153.176 168.344C154.176 167.625 155.617 167.262 157.5 167.254H159.059V166.527C159.059 165.941 158.906 165.473 158.602 165.121C158.305 164.77 157.832 164.594 157.184 164.594C156.613 164.594 156.164 164.73 155.836 165.004C155.516 165.277 155.355 165.652 155.355 166.129H151.969C151.969 165.395 152.195 164.715 152.648 164.09C153.102 163.465 153.742 162.977 154.57 162.625C155.398 162.266 156.328 162.086 157.359 162.086C158.922 162.086 160.16 162.48 161.074 163.27C161.996 164.051 162.457 165.152 162.457 166.574V172.07C162.465 173.273 162.633 174.184 162.961 174.801V175H159.539ZM156.738 172.645C157.238 172.645 157.699 172.535 158.121 172.316C158.543 172.09 158.855 171.789 159.059 171.414V169.234H157.793C156.098 169.234 155.195 169.82 155.086 170.992L155.074 171.191C155.074 171.613 155.223 171.961 155.52 172.234C155.816 172.508 156.223 172.645 156.738 172.645Z" fill="#3F4255"/>
</svg>
