<svg width="183" height="176" viewBox="0 0 183 176" fill="none" xmlns="http://www.w3.org/2000/svg">
<circle cx="92" cy="86" r="63" fill="#FFE500"/>
<circle cx="91.5" cy="63.5" r="63" stroke="#B79C10"/>
<path d="M88.4961 78H85.1094V64.9453L81.0664 66.1992V63.4453L88.1328 60.9141H88.4961V78Z" fill="#3F4255"/>
<path d="M51.9844 169.914L50.7656 171.133V175H47.3789V157H50.7656V166.973L51.4219 166.129L54.668 162.32H58.7344L54.1523 167.605L59.1328 175H55.2422L51.9844 169.914ZM63.7734 175H60.375V157H63.7734V175ZM73.9219 175C73.7656 174.695 73.6523 174.316 73.582 173.863C72.7617 174.777 71.6953 175.234 70.3828 175.234C69.1406 175.234 68.1094 174.875 67.2891 174.156C66.4766 173.438 66.0703 172.531 66.0703 171.438C66.0703 170.094 66.5664 169.062 67.5586 168.344C68.5586 167.625 70 167.262 71.8828 167.254H73.4414V166.527C73.4414 165.941 73.2891 165.473 72.9844 165.121C72.6875 164.77 72.2148 164.594 71.5664 164.594C70.9961 164.594 70.5469 164.73 70.2188 165.004C69.8984 165.277 69.7383 165.652 69.7383 166.129H66.3516C66.3516 165.395 66.5781 164.715 67.0312 164.09C67.4844 163.465 68.125 162.977 68.9531 162.625C69.7812 162.266 70.7109 162.086 71.7422 162.086C73.3047 162.086 74.543 162.48 75.457 163.27C76.3789 164.051 76.8398 165.152 76.8398 166.574V172.07C76.8477 173.273 77.0156 174.184 77.3438 174.801V175H73.9219ZM71.1211 172.645C71.6211 172.645 72.082 172.535 72.5039 172.316C72.9258 172.09 73.2383 171.789 73.4414 171.414V169.234H72.1758C70.4805 169.234 69.5781 169.82 69.4688 170.992L69.457 171.191C69.457 171.613 69.6055 171.961 69.9023 172.234C70.1992 172.508 70.6055 172.645 71.1211 172.645ZM78.9141 168.543C78.9141 167.285 79.1562 166.164 79.6406 165.18C80.125 164.195 80.8203 163.434 81.7266 162.895C82.6406 162.355 83.6992 162.086 84.9023 162.086C86.6133 162.086 88.0078 162.609 89.0859 163.656C90.1719 164.703 90.7773 166.125 90.9023 167.922L90.9258 168.789C90.9258 170.734 90.3828 172.297 89.2969 173.477C88.2109 174.648 86.7539 175.234 84.9258 175.234C83.0977 175.234 81.6367 174.648 80.543 173.477C79.457 172.305 78.9141 170.711 78.9141 168.695V168.543ZM82.3008 168.789C82.3008 169.992 82.5273 170.914 82.9805 171.555C83.4336 172.188 84.082 172.504 84.9258 172.504C85.7461 172.504 86.3867 172.191 86.8477 171.566C87.3086 170.934 87.5391 169.926 87.5391 168.543C87.5391 167.363 87.3086 166.449 86.8477 165.801C86.3867 165.152 85.7383 164.828 84.9023 164.828C84.0742 164.828 83.4336 165.152 82.9805 165.801C82.5273 166.441 82.3008 167.438 82.3008 168.789ZM96.1289 162.32L96.2344 163.785C97.1406 162.652 98.3555 162.086 99.8789 162.086C101.223 162.086 102.223 162.48 102.879 163.27C103.535 164.059 103.871 165.238 103.887 166.809V175H100.5V166.891C100.5 166.172 100.344 165.652 100.031 165.332C99.7188 165.004 99.1992 164.84 98.4727 164.84C97.5195 164.84 96.8047 165.246 96.3281 166.059V175H92.9414V162.32H96.1289ZM110.039 175H106.641V162.32H110.039V175ZM106.441 159.039C106.441 158.531 106.609 158.113 106.945 157.785C107.289 157.457 107.754 157.293 108.34 157.293C108.918 157.293 109.379 157.457 109.723 157.785C110.066 158.113 110.238 158.531 110.238 159.039C110.238 159.555 110.062 159.977 109.711 160.305C109.367 160.633 108.91 160.797 108.34 160.797C107.77 160.797 107.309 160.633 106.957 160.305C106.613 159.977 106.441 159.555 106.441 159.039ZM118.113 172.504C118.738 172.504 119.246 172.332 119.637 171.988C120.027 171.645 120.23 171.188 120.246 170.617H123.422C123.414 171.477 123.18 172.266 122.719 172.984C122.258 173.695 121.625 174.25 120.82 174.648C120.023 175.039 119.141 175.234 118.172 175.234C116.359 175.234 114.93 174.66 113.883 173.512C112.836 172.355 112.312 170.762 112.312 168.73V168.508C112.312 166.555 112.832 164.996 113.871 163.832C114.91 162.668 116.336 162.086 118.148 162.086C119.734 162.086 121.004 162.539 121.957 163.445C122.918 164.344 123.406 165.543 123.422 167.043H120.246C120.23 166.387 120.027 165.855 119.637 165.449C119.246 165.035 118.73 164.828 118.09 164.828C117.301 164.828 116.703 165.117 116.297 165.695C115.898 166.266 115.699 167.195 115.699 168.484V168.836C115.699 170.141 115.898 171.078 116.297 171.648C116.695 172.219 117.301 172.504 118.113 172.504ZM132.703 175C132.547 174.695 132.434 174.316 132.363 173.863C131.543 174.777 130.477 175.234 129.164 175.234C127.922 175.234 126.891 174.875 126.07 174.156C125.258 173.438 124.852 172.531 124.852 171.438C124.852 170.094 125.348 169.062 126.34 168.344C127.34 167.625 128.781 167.262 130.664 167.254H132.223V166.527C132.223 165.941 132.07 165.473 131.766 165.121C131.469 164.77 130.996 164.594 130.348 164.594C129.777 164.594 129.328 164.73 129 165.004C128.68 165.277 128.52 165.652 128.52 166.129H125.133C125.133 165.395 125.359 164.715 125.812 164.09C126.266 163.465 126.906 162.977 127.734 162.625C128.562 162.266 129.492 162.086 130.523 162.086C132.086 162.086 133.324 162.48 134.238 163.27C135.16 164.051 135.621 165.152 135.621 166.574V172.07C135.629 173.273 135.797 174.184 136.125 174.801V175H132.703ZM129.902 172.645C130.402 172.645 130.863 172.535 131.285 172.316C131.707 172.09 132.02 171.789 132.223 171.414V169.234H130.957C129.262 169.234 128.359 169.82 128.25 170.992L128.238 171.191C128.238 171.613 128.387 171.961 128.684 172.234C128.98 172.508 129.387 172.645 129.902 172.645Z" fill="#3F4255"/>
</svg>
