<svg width="31" height="30" viewBox="0 0 31 30" fill="none" xmlns="http://www.w3.org/2000/svg">
<path fill-rule="evenodd" clip-rule="evenodd" d="M15.339 3.20868C19.269 3.20868 19.7304 3.22603 21.2837 3.29542C22.7202 3.35903 23.4969 3.59613 24.0166 3.79853C24.7057 4.06454 25.1962 4.37682 25.7101 4.88571C26.224 5.39461 26.5451 5.88037 26.8079 6.56275C27.0065 7.07742 27.2517 7.84655 27.316 9.26913C27.386 10.8074 27.4036 11.2642 27.4036 15.1561C27.4036 19.048 27.386 19.5048 27.316 21.0431C27.2517 22.4657 27.0123 23.2348 26.8079 23.7495C26.5393 24.4318 26.224 24.9176 25.7101 25.4265C25.1962 25.9354 24.7057 26.2534 24.0166 26.5137C23.4969 26.7103 22.7202 26.9532 21.2837 27.0168C19.7304 27.0862 19.269 27.1035 15.339 27.1035C11.409 27.1035 10.9476 27.0862 9.39432 27.0168C7.95778 26.9532 7.18112 26.7161 6.6614 26.5137C5.97233 26.2477 5.4818 25.9354 4.96792 25.4265C4.45404 24.9176 4.13286 24.4318 3.87008 23.7495C3.67154 23.2348 3.42628 22.4657 3.36204 21.0431C3.29197 19.5048 3.27445 19.048 3.27445 15.1561C3.27445 11.2642 3.29197 10.8074 3.36204 9.26913C3.42628 7.84655 3.6657 7.07742 3.87008 6.56275C4.1387 5.88037 4.45404 5.39461 4.96792 4.88571C5.4818 4.37682 5.97233 4.05876 6.6614 3.79853C7.18112 3.60191 7.95778 3.35903 9.39432 3.29542C10.9476 3.22024 11.409 3.20868 15.339 3.20868ZM15.339 0.583252C11.3447 0.583252 10.8425 0.600601 9.27169 0.669995C7.70668 0.73939 6.63804 0.988053 5.70371 1.34659C4.73434 1.7167 3.9168 2.21981 3.09926 3.02941C2.28172 3.83901 1.77952 4.6544 1.39994 5.60857C1.03789 6.53383 0.786788 7.5921 0.716713 9.14769C0.646639 10.6975 0.62912 11.1948 0.62912 15.1503C0.62912 19.1058 0.646639 19.6031 0.716713 21.1587C0.786788 22.7085 1.03789 23.7668 1.39994 24.6979C1.77368 25.6578 2.28172 26.4674 3.09926 27.277C3.9168 28.0866 4.74018 28.5839 5.70371 28.9598C6.63804 29.3184 7.70668 29.567 9.27753 29.6364C10.8484 29.7058 11.3447 29.7232 15.3448 29.7232C19.3449 29.7232 19.8413 29.7058 21.4122 29.6364C22.9772 29.567 24.0458 29.3184 24.986 28.9598C25.9553 28.5897 26.7729 28.0866 27.5904 27.277C28.408 26.4674 28.9102 25.652 29.2897 24.6979C29.6518 23.7726 29.9029 22.7143 29.973 21.1587C30.043 19.6031 30.0606 19.1116 30.0606 15.1503C30.0606 11.189 30.043 10.6975 29.973 9.14191C29.9029 7.5921 29.6518 6.53383 29.2897 5.60279C28.916 4.64283 28.408 3.83323 27.5904 3.02363C26.7729 2.21402 25.9495 1.7167 24.986 1.34081C24.0516 0.982271 22.983 0.733607 21.4122 0.664212C19.8355 0.600601 19.3333 0.583252 15.339 0.583252ZM15.339 7.66728C11.1695 7.66728 7.7826 11.0156 7.7826 15.1503C7.7826 19.2851 11.1695 22.6334 15.339 22.6334C19.5085 22.6334 22.8954 19.2793 22.8954 15.1503C22.8954 11.0213 19.5085 7.66728 15.339 7.66728ZM15.339 20.0079C12.6294 20.0079 10.4338 17.8336 10.4338 15.1503C10.4338 12.4671 12.6294 10.2927 15.339 10.2927C18.0486 10.2927 20.2442 12.4671 20.2442 15.1503C20.2442 17.8336 18.0486 20.0079 15.339 20.0079ZM24.9564 7.37234C24.9564 8.33687 24.1668 9.11877 23.1928 9.11877C22.2188 9.11877 21.4293 8.33687 21.4293 7.37234C21.4293 6.40782 22.2188 5.62592 23.1928 5.62592C24.1668 5.62592 24.9564 6.40782 24.9564 7.37234Z" fill="#9093A6"/>
</svg>
