<svg width="195" height="44" viewBox="0 0 195 44" fill="none" xmlns="http://www.w3.org/2000/svg">
<rect x="-0.0305481" y="30.168" width="113" height="13" fill="#FFE600"/>
<path d="M12.7295 37.6479C10.4575 37.6479 8.42545 37.1839 6.63345 36.2559C4.87345 35.3279 3.48145 33.8879 2.45745 31.9359C1.46545 29.9839 0.969452 27.4879 0.969452 24.4479C0.969452 21.2799 1.49745 18.7039 2.55345 16.7199C3.60945 14.7359 5.03345 13.2799 6.82545 12.3519C8.64945 11.4239 10.7135 10.9599 13.0175 10.9599C14.3295 10.9599 15.5935 11.1039 16.8095 11.3919C18.0255 11.6479 19.0175 11.9679 19.7855 12.3519L18.4895 15.8559C17.7215 15.5679 16.8255 15.2959 15.8015 15.0399C14.7775 14.7839 13.8175 14.6559 12.9215 14.6559C7.86545 14.6559 5.33745 17.9039 5.33745 24.3999C5.33745 27.5039 5.94545 29.8879 7.16145 31.5519C8.40945 33.1839 10.2495 33.9999 12.6815 33.9999C14.0895 33.9999 15.3215 33.8559 16.3775 33.5679C17.4655 33.2799 18.4575 32.9279 19.3535 32.5119V36.2559C18.4895 36.7039 17.5295 37.0399 16.4735 37.2639C15.4495 37.5199 14.2015 37.6479 12.7295 37.6479ZM9.75345 8.0799C9.33745 7.3439 8.77745 6.5599 8.07345 5.7279C7.36945 4.8639 6.63345 4.0159 5.86545 3.1839C5.09745 2.3519 4.42545 1.6319 3.84945 1.0239V0.399902H6.72945C7.56145 0.943903 8.42545 1.5999 9.32145 2.3679C10.2175 3.1359 11.0655 3.9519 11.8655 4.8159C12.7295 3.9519 13.6095 3.1359 14.5055 2.3679C15.4015 1.5999 16.2655 0.943903 17.0975 0.399902H20.0735V1.0239C19.4655 1.6319 18.7615 2.3519 17.9615 3.1839C17.1935 4.0159 16.4415 4.8639 15.7055 5.7279C15.0015 6.5599 14.4575 7.3439 14.0735 8.0799H9.75345Z" fill="black"/>
<path d="M38.7357 14.5038L39.2279 12.207H48.392V13.6367L44.9466 15.0898L36.1576 37.1679H33.3216L24.5326 14.996L21.0873 14.3632L21.556 12.207H32.5951V13.6367L29.1498 14.8554L35.6185 31.3554L42.1576 14.996L38.7357 14.5038Z" fill="black"/>
<path d="M64.4935 37.1679V33.2773C64.0091 33.8554 63.4232 34.4023 62.7357 34.9179C62.0482 35.4335 61.3216 35.8945 60.556 36.3007C59.7904 36.6913 59.017 36.996 58.2357 37.2148C57.4545 37.4335 56.7123 37.5429 56.0091 37.5429C55.1341 37.5429 54.3138 37.4101 53.5482 37.1445C52.7826 36.8788 52.1107 36.4726 51.5326 35.9257C50.9545 35.3788 50.4857 34.7226 50.1263 33.957C49.7826 33.1913 49.6107 32.2929 49.6107 31.2617C49.6107 29.6679 50.017 28.371 50.8295 27.371C51.6576 26.3554 53.1107 25.5742 55.1888 25.0273C56.7513 24.6054 58.2591 24.2617 59.7123 23.996C61.1654 23.7148 62.7591 23.4804 64.4935 23.2929V19.3554C64.4935 18.4648 64.3607 17.707 64.0951 17.082C63.8451 16.457 63.4935 15.9492 63.0404 15.5585C62.6029 15.1523 62.0873 14.8632 61.4935 14.6913C60.8998 14.5038 60.267 14.4101 59.5951 14.4101C58.8607 14.4101 58.1107 14.4648 57.3451 14.5742C56.5795 14.6679 55.8295 14.8398 55.0951 15.0898L53.7357 20.5507L51.2513 20.1288V13.8945C52.5013 13.3476 53.8373 12.8632 55.2591 12.4413C56.681 12.0038 58.2045 11.7851 59.8295 11.7851C61.0795 11.7851 62.2513 11.9101 63.3451 12.1601C64.4388 12.4101 65.392 12.832 66.2045 13.4257C67.017 14.0195 67.6498 14.8085 68.1029 15.7929C68.5716 16.7617 68.806 17.9648 68.806 19.4023V34.1445L72.2748 34.9648L71.7826 37.1679H64.4935ZM54.4154 30.8867C54.4154 31.6523 54.5091 32.2695 54.6966 32.7382C54.8998 33.1913 55.1654 33.5585 55.4935 33.8398C55.8373 34.1054 56.2201 34.2851 56.642 34.3788C57.0795 34.4726 57.5404 34.5195 58.0248 34.5195C58.5873 34.5195 59.1888 34.4023 59.8295 34.1679C60.4701 33.9335 61.0873 33.6445 61.681 33.3007C62.2748 32.9413 62.8216 32.5351 63.3216 32.082C63.8216 31.6288 64.2123 31.1992 64.4935 30.7929V25.3085C63.4779 25.4335 62.4545 25.5742 61.4232 25.7304C60.392 25.871 59.3685 26.082 58.3529 26.3632C56.8529 26.7851 55.8216 27.3945 55.2591 28.1913C54.6966 28.9882 54.4154 29.8867 54.4154 30.8867Z" fill="black"/>
<path d="M93.6966 18.9804L91.1888 19.4023L89.8998 15.7695C89.7748 15.7382 89.6107 15.7226 89.4076 15.7226C89.2201 15.7226 89.0638 15.7226 88.9388 15.7226C87.9076 15.7226 86.8295 15.9492 85.7045 16.4023C84.5951 16.8398 83.7201 17.4257 83.0795 18.1601V34.1913L87.5091 34.871L87.017 37.1679H74.642V35.7382L78.8138 34.2851V15.9101L74.8295 15.1367L74.5951 13.0273L83.0795 11.8788V15.8163C84.1732 14.6601 85.3373 13.7148 86.5716 12.9804C87.806 12.246 89.1263 11.8788 90.5326 11.8788C91.6107 11.8788 92.6654 12.0976 93.6966 12.5351V18.9804Z" fill="black"/>
<path d="M113.29 15.2304C111.915 14.6835 110.665 14.4101 109.54 14.4101C108.322 14.4101 107.212 14.6679 106.212 15.1835C105.228 15.6992 104.384 16.3945 103.681 17.2695C102.978 18.1445 102.423 19.1913 102.017 20.4101C101.626 21.6288 101.431 22.9413 101.431 24.3476C101.431 25.6288 101.587 26.8788 101.9 28.0976C102.228 29.3163 102.728 30.4101 103.4 31.3788C104.072 32.332 104.915 33.0976 105.931 33.6757C106.962 34.2382 108.181 34.5195 109.587 34.5195C110.681 34.5195 111.869 34.3163 113.15 33.9101C114.447 33.4882 115.595 32.9101 116.595 32.1757L117.65 34.0038C116.369 35.2226 114.954 36.1445 113.408 36.7695C111.876 37.3945 110.298 37.707 108.673 37.707C107.048 37.707 105.501 37.4179 104.033 36.8398C102.579 36.2617 101.298 35.4179 100.189 34.3085C99.0951 33.1992 98.2279 31.8398 97.5873 30.2304C96.9466 28.621 96.6263 26.7773 96.6263 24.6992C96.6263 22.6367 96.9857 20.8085 97.7045 19.2148C98.4232 17.621 99.3763 16.2695 100.564 15.1601C101.751 14.0507 103.111 13.2148 104.642 12.6523C106.173 12.0742 107.759 11.7851 109.4 11.7851C110.712 11.7851 112.001 11.9726 113.267 12.3476C114.548 12.707 115.798 13.2695 117.017 14.0351V20.4101L114.626 20.9023L113.29 15.2304Z" fill="black"/>
<path d="M129.392 34.1913L133.001 34.871L132.509 37.1679H120.861V35.7382L125.079 34.2851V15.7226L121.189 14.996L120.954 13.0273L129.392 11.8788V34.1913ZM123.486 4.87103C124.298 3.46478 125.423 2.3554 126.861 1.5429C128.267 2.27728 129.337 3.3554 130.072 4.77728C129.244 6.18353 128.126 7.28509 126.72 8.08197C126.048 7.72259 125.431 7.26947 124.869 6.72259C124.306 6.16009 123.845 5.5429 123.486 4.87103Z" fill="black"/>
<path d="M136.072 34.5195C136.915 33.0195 138.103 31.8554 139.634 31.0273C141.103 31.8242 142.236 32.957 143.033 34.4257C142.173 35.9413 140.994 37.1132 139.494 37.9413C137.994 37.1757 136.853 36.0351 136.072 34.5195Z" fill="black"/>
<path d="M149.583 20.3632L159.404 33.3945V21.8984L157.142 21.4531L157.376 20.3632H163.119V21.207L160.833 21.8984V37.1679H159.404L149.583 24.1132V35.6327L151.857 36.0898L151.622 37.1679H145.857V36.3242L148.142 35.6327V21.8984L145.857 21.4531L146.103 20.3632H149.583Z" fill="black"/>
<path d="M176.396 33.0663L177.65 33.3242V37.1679H164.642V36.3242L166.915 35.6327V21.8984L164.642 21.4531L164.876 20.3632H177.146V24.3007L175.939 24.5468L175.177 21.6874H169.318V27.7812L173.372 27.6874L174.017 26.082L174.861 26.3163V30.5702L174.193 30.8046L173.372 29.2226L169.318 29.1054V35.8437H175.634L176.396 33.0663Z" fill="black"/>
<path d="M180.122 25.1445L178.927 24.8984V20.3632H193.013V24.8984L191.818 25.1445L191.021 21.6874H187.212V35.6327L189.486 36.0898L189.251 37.1679H182.525V36.3242L184.81 35.6327V21.6874H180.919L180.122 25.1445Z" fill="black"/>
</svg>
