<svg width="29" height="25" viewBox="0 0 29 25" fill="none" xmlns="http://www.w3.org/2000/svg">
<path d="M28.1625 2.9038C27.1621 3.39018 26.0887 3.72004 24.9608 3.8673C26.1124 3.11066 26.9939 1.91052 27.4117 0.484849C26.3315 1.18555 25.1392 1.69435 23.8687 1.97016C22.8513 0.779329 21.4042 0.0375977 19.7991 0.0375977C16.7198 0.0375977 14.2231 2.7771 14.2231 6.15394C14.2231 6.63287 14.2723 7.10064 14.3675 7.54794C9.73406 7.29259 5.62548 4.85688 2.87566 1.15573C2.39498 2.05773 2.12153 3.10876 2.12153 4.23069C2.12153 6.35335 3.10665 8.22627 4.60132 9.32203C3.68753 9.2885 2.8281 9.01269 2.0757 8.55423V8.63064C2.0757 11.5938 3.99837 14.0668 6.54775 14.6296C6.08066 14.7675 5.58813 14.8439 5.07858 14.8439C4.71852 14.8439 4.37033 14.8048 4.02893 14.7302C4.73887 17.1622 6.79744 18.9308 9.23646 18.9793C7.32906 20.6192 4.92402 21.5939 2.3118 21.5939C1.86172 21.5939 1.41839 21.5641 0.981903 21.51C3.44979 23.2488 6.37965 24.2626 9.5286 24.2626C19.7856 24.2626 25.3923 14.9408 25.3923 6.85654L25.3736 6.06452C26.4691 5.2072 27.4168 4.13006 28.1625 2.9038Z" fill="#9093A6"/>
</svg>
